HIERARCHY
ROOT hip
{
	OFFSET 0.000000 0.000000 0.000000 
	CHANNELS 6 Xposition Yposition Zposition Xrotation Zrotation Yrotation
	JOINT abdomen
	{
		OFFSET 0.000000 3.402643 0.000000 
		CHANNELS 3 Xrotation Zrotation Yrotation
		JOINT chest
		{
			OFFSET 0.000000 8.438565 -0.680529 
			CHANNELS 3 Xrotation Zrotation Yrotation
			JOINT neck
			{
				OFFSET 0.000000 10.207942 -0.272212 
				CHANNELS 3 Xrotation Zrotation Yrotation
				JOINT head
				{
					OFFSET 0.000000 3.130431 0.000000 
					CHANNELS 3 Xrotation Zrotation Yrotation
					End Site
					{
						OFFSET 0.000000 3.130435 0.000000 
					}
				}
			}
			JOINT lCollar
			{
				OFFSET 3.470700 6.669187 -0.816635 
				CHANNELS 3 Yrotation Zrotation Xrotation
				JOINT lShldr
				{
					OFFSET 3.198488 0.000000 0.000000 
					CHANNELS 3 Zrotation Yrotation Xrotation
					JOINT lForeArm
					{
						OFFSET 10.139888 0.000000 0.000000 
						CHANNELS 3 Yrotation Zrotation Xrotation
						JOINT lHand
						{
							OFFSET 8.370511 0.000000 0.000000 
							CHANNELS 3 Zrotation Yrotation Xrotation
							End Site
							{
								OFFSET 4.083176 0.000000 0.000000 
							}
						}
					}
				}
			}
			JOINT rCollar
			{
				OFFSET -3.470700 6.669187 -0.816635 
				CHANNELS 3 Yrotation Zrotation Xrotation
				JOINT rShldr
				{
					OFFSET -3.198488 0.000000 0.000000 
					CHANNELS 3 Zrotation Yrotation Xrotation
					JOINT rForeArm
					{
						OFFSET -10.139888 0.000000 0.000000 
						CHANNELS 3 Yrotation Zrotation Xrotation
						JOINT rHand
						{
							OFFSET -8.370511 0.000000 0.000000 
							CHANNELS 3 Zrotation Yrotation Xrotation
							End Site
							{
								OFFSET -4.083176 0.000000 0.000000 
							}
						}
					}
				}
			}
		}
	}
	JOINT lThigh
	{
		OFFSET 5.308129 -1.633274 1.361059 
		CHANNELS 3 Xrotation Zrotation Yrotation
		JOINT lShin
		{
			OFFSET -2.041588 -20.007561 0.000000 
			CHANNELS 3 Xrotation Zrotation Yrotation
			JOINT lFoot
			{
				OFFSET 0.000000 -19.190928 -1.224953 
				CHANNELS 3 Xrotation Yrotation Zrotation
				End Site
				{
					OFFSET 0.000000 -2.449906 4.627600 
				}
			}
		}
	}
	JOINT rThigh
	{
		OFFSET -5.308129 -1.633274 1.361059 
		CHANNELS 3 Xrotation Zrotation Yrotation
		JOINT rShin
		{
			OFFSET 2.041588 -20.007561 0.000000 
			CHANNELS 3 Xrotation Zrotation Yrotation
			JOINT rFoot
			{
				OFFSET 0.000000 -19.190928 -1.224953 
				CHANNELS 3 Xrotation Yrotation Zrotation
				End Site
				{
					OFFSET 0.000000 -2.449906 4.627600 
				}
			}
		}
	}
}
MOTION
Frames: 13
Frame Time: 0.011111
68.294624 51.865307 -2.941164 -0.016935 5.077731 -92.676590 17.337988 -2.619420 3.645983 -28.377745 -1.403527 1.178467 -12.619688 -4.491796 -2.559145 12.439774 12.194355 -5.470411 -10.275489 -5.709454 -1.550532 -74.199921 -14.438245 0.098155 -69.098412 9.251215 16.647171 8.524705 12.647240 -59.505264 5.831508 6.350754 -0.460990 77.331139 11.068169 3.822132 78.023254 -7.325632 21.305624 -8.534408 -12.637552 52.611183 -14.393934 8.896177 3.062852 36.831093 -4.900198 -5.697913 -29.360029 -9.835760 -7.358162 -3.178561 -3.646077 -2.082510 18.253843 5.818054 3.255702 -27.673777 -34.514568 -10.145123 
68.292931 51.818043 -2.924621 -0.148721 4.840379 -92.605789 17.559130 -2.611547 3.512344 -28.162760 -1.253218 1.143934 -13.112542 -4.801218 -2.379706 12.829841 12.574972 -5.212626 -10.275489 -5.709454 -1.550532 -74.272171 -14.660900 -0.174998 -68.811775 9.273084 16.498800 8.524705 12.647240 -60.169323 5.831508 6.350754 -0.460990 77.330025 11.726882 4.459004 78.486084 -7.146970 21.576532 -8.534408 -12.637552 52.845558 -14.202287 8.677164 2.900545 36.999680 -4.884740 -5.727123 -29.430868 -9.762795 -7.303236 -2.644506 -3.795370 -2.391994 17.806376 5.841270 3.179488 -27.241917 -33.607925 -9.691905 
68.289558 51.802513 -2.906053 -0.215105 4.604663 -92.517845 17.771118 -2.477218 3.349256 -27.986940 -1.132905 1.083793 -13.382480 -5.151681 -2.223117 12.962380 12.975728 -4.991751 -10.275489 -5.709454 -1.550532 -74.378654 -14.810454 -0.639755 -68.547981 9.295984 16.371296 8.524705 12.647240 -60.765022 5.831508 6.350754 -0.460990 77.310143 12.294942 5.195515 78.869438 -6.992269 21.799683 -8.534408 -12.637552 53.031109 -14.016175 8.510837 2.598328 37.107742 -4.884764 -5.746285 -29.527588 -9.552758 -7.177033 -2.290779 -3.888470 -2.706758 17.632442 5.838331 3.163202 -27.027746 -33.221989 -9.466522 
68.285507 51.787659 -2.886473 -0.174928 4.312664 -92.457443 18.155739 -2.119774 3.176961 -28.182457 -1.261443 1.007912 -13.542321 -5.405927 -2.071570 13.206417 13.364544 -4.771605 -10.275489 -5.709454 -1.550532 -74.379868 -14.611651 -1.301349 -68.327988 9.317662 16.266840 8.524705 12.647240 -61.145889 5.831508 6.350754 -0.460990 77.474648 12.550013 6.102214 79.250122 -6.831955 22.021343 -8.534408 -12.637552 53.197124 -13.767950 8.426784 2.194103 37.176865 -4.880581 -5.760547 -29.641279 -9.304677 -7.060308 -1.853577 -3.882178 -2.955878 17.447353 5.838535 3.136760 -26.855402 -33.120102 -9.349306 
68.286179 51.759636 -2.824692 -0.100606 3.709300 -91.868851 18.986010 -1.479072 2.640159 -28.524927 -1.611207 0.824605 -13.860087 -6.103637 -1.767105 13.808931 14.598153 -4.294744 -10.275489 -5.709454 -1.550532 -74.296516 -14.347084 -1.993907 -68.073341 9.334772 16.141279 8.524705 12.647240 -61.263073 5.831508 6.350754 -0.460990 77.569229 12.816668 7.186361 79.513733 -6.715419 22.180092 -8.534408 -12.637552 53.363136 -13.255338 8.179571 1.346822 37.207481 -4.870866 -5.760921 -29.752836 -9.035068 -6.902783 -1.044401 -3.912254 -3.547288 17.343941 5.839669 3.128189 -27.371130 -33.098061 -9.642670 
68.278419 51.769764 -2.839209 -0.020451 3.691025 -92.139832 19.015146 -1.240218 2.673532 -28.681377 -1.698016 0.815800 -14.082924 -6.522448 -1.499000 14.223923 15.449389 -3.842734 -10.275489 -5.709454 -1.550532 -74.094421 -14.040176 -2.537514 -67.754128 9.353341 15.990598 8.524705 12.647240 -61.175182 5.831508 6.350754 -0.460990 77.673653 13.241830 8.194680 79.654037 -6.651541 22.264944 -8.534408 -12.637552 53.411968 -13.187557 8.277450 1.302648 37.197239 -4.874493 -5.760349 -29.892736 -8.839624 -6.768243 -1.024820 -3.844516 -3.336447 17.313457 5.839240 3.114776 -27.889746 -33.145889 -9.987273 
68.269981 51.777870 -2.853726 0.017141 3.691781 -92.508453 18.993986 -1.198436 2.792267 -28.700865 -1.676850 0.834456 -14.224019 -6.394408 -1.438926 14.274712 15.432651 -3.674489 -10.275489 -5.709454 -1.550532 -73.918030 -13.847646 -2.964304 -67.468491 9.371612 15.850452 8.524705 12.647240 -61.243546 5.831508 6.350754 -0.460990 77.836929 13.742691 8.917701 79.887581 -6.544111 22.410151 -8.534408 -12.637552 53.314312 -13.104595 8.339263 1.280698 37.157482 -4.874602 -5.766629 -30.044960 -8.549486 -6.610511 -1.034375 -3.804195 -3.177317 17.333689 5.839503 3.126295 -28.018822 -33.019657 -10.050917 
68.266609 51.773479 -2.868243 0.017646 3.682081 -92.869789 18.993923 -1.228073 2.876609 -28.710417 -1.557006 0.865261 -14.341695 -6.116881 -1.430447 14.161087 15.074233 -3.604436 -10.275489 -5.709454 -1.550532 -73.807289 -13.717300 -3.400505 -67.256790 9.384204 15.750182 8.524705 12.647240 -61.438858 5.831508 6.350754 -0.460990 77.920326 14.096609 9.754878 80.129448 -6.430539 22.566076 -8.534408 -12.637552 53.363136 -13.007618 8.271481 0.873272 37.157162 -4.880510 -5.758798 -30.306061 -8.024772 -6.294815 -1.073028 -3.783355 -3.157911 17.382330 5.849384 3.122293 -27.875965 -32.692650 -9.880790 
68.267616 51.758625 -2.883097 -0.048262 3.670523 -93.215027 19.004610 -1.375366 2.941272 -28.749174 -1.340008 0.879919 -14.387787 -6.060647 -1.397181 14.002696 14.962820 -3.549384 -10.275489 -5.709454 -1.550532 -73.706078 -13.539032 -3.714905 -66.969940 9.397799 15.610968 8.524705 12.647240 -61.116589 5.831508 6.350754 -0.460990 77.834976 14.312911 10.735462 80.376999 -6.306910 22.712526 -8.534408 -12.637552 53.558449 -12.912801 8.198626 0.787922 37.157490 -4.880523 -5.749117 -30.474937 -7.712917 -6.120585 -1.160630 -3.811272 -3.211787 17.454048 5.850692 3.129570 -27.028229 -32.381542 -9.315627 
68.266266 51.738365 -2.886473 -0.146759 3.696694 -93.502472 18.948204 -1.548175 2.966104 -28.739107 -1.084084 0.900228 -14.327172 -6.033773 -1.382552 13.710216 14.843171 -3.562039 -10.275489 -5.709454 -1.550532 -73.661415 -13.321714 -3.964041 -66.727394 9.413140 15.505663 8.524705 12.647240 -60.765022 5.831508 6.350754 -0.460990 77.768845 14.531451 11.510386 80.731369 -6.124232 22.939941 -8.534408 -12.637552 53.665874 -12.880299 8.251659 1.402969 37.176865 -4.880572 -5.760540 -30.394222 -7.963498 -6.271417 -1.308060 -3.883417 -3.437277 17.576822 5.852314 3.150064 -25.391928 -32.105682 -8.290451 
68.264908 51.726894 -2.884447 -0.153226 3.705871 -93.795448 18.919870 -1.602470 3.063204 -28.729155 -0.886606 0.924865 -14.225077 -5.921244 -1.396287 13.375478 14.582408 -3.576514 -10.275489 -5.709454 -1.550532 -73.595795 -13.160144 -4.290807 -66.640533 9.411293 15.448513 8.524705 12.647240 -61.253307 5.831508 6.350754 -0.460990 77.779694 14.758930 12.068453 80.984833 -5.990718 23.106451 -8.534408 -12.637552 53.743999 -12.822154 8.369199 1.867221 37.185814 -4.888673 -5.764077 -30.371679 -8.082191 -6.332443 -1.414554 -3.871751 -3.568154 17.697226 5.827744 3.177676 -24.481747 -31.909998 -7.704247 
68.267616 51.723179 -2.883434 -0.132769 3.706242 -94.058784 18.940380 -1.655448 3.181599 -28.748535 -0.687939 0.959661 -14.222093 -5.847854 -1.384599 13.173106 14.387042 -3.562522 -10.275489 -5.709454 -1.550532 -73.503555 -13.083095 -4.613908 -66.460442 9.420025 15.371189 8.524705 12.647240 -61.770885 5.831508 6.350754 -0.460990 77.767609 15.013261 12.529223 81.117905 -5.915927 23.191053 -8.534408 -12.637552 53.802593 -12.762099 8.397352 1.924525 37.157806 -4.874625 -5.756954 -30.497761 -7.927746 -6.244134 -1.493825 -3.846137 -3.491185 17.766109 5.837580 3.185184 -24.889528 -31.704403 -7.898463 
68.264236 51.732292 -2.884785 -0.128722 3.745240 -94.244629 18.902534 -1.753846 3.284203 -28.689857 -0.462085 0.981812 -14.327565 -5.771144 -1.378373 13.030534 14.197382 -3.552062 -10.275489 -5.709454 -1.550532 -73.386673 -13.080984 -4.499126 -65.811874 9.440022 15.069587 8.524705 12.647240 -59.934944 5.831508 6.350754 -0.460990 77.724129 15.283624 12.841529 81.225693 -5.857841 23.271873 -8.534408 -12.637552 53.773296 -12.747975 8.413857 1.952480 37.137791 -4.880482 -5.747385 -30.631086 -7.823983 -6.171551 -1.552630 -3.846816 -3.218321 17.758713 5.828414 3.183033 -25.759390 -31.663200 -8.402132 
